<svg xmlns="http://www.w3.org/2000/svg" viewBox="0 0 341 97"><path fill="#FFF" fill-rule="evenodd" d="M12.9541199,76.8499598 C8.50032019,76.1614795 4.30652051,74.2905197 4.30652051,70.6260797 C4.30652051,66.9621593 8.07288013,64.8915189 11.2698399,64.8915189 C14.3237997,64.8915189 16.5774795,67.6651987 16.5774795,70.7056388 C16.5774795,72.2495189 17.8395197,73.5011593 19.3969196,73.5011593 C20.9532792,73.5011593 22.2158391,72.2495189 22.2158391,70.7056388 C22.2163588,66.3989984 17.862399,63.184358 11.3457587,63.184358 C6.85139905,63.184358 0.337879333,65.7406782 0.337879333,72.9665986 C0.337879333,80.1935583 6.93407965,81.3401585 12.0238399,82.3541585 C16.3939196,83.2251585 19.6095994,85.1985583 19.6095994,88.6295181 C19.6095994,92.4972784 15.5572397,94.7462784 12.1163998,94.7462784 C8.83,94.7462784 5.87588013,91.5695986 5.87588013,88.8000789 C5.87588013,87.4465189 4.62423975,86.1496388 3.06944006,86.1496388 C1.47408044,86.1496388 0.23232019,87.452239 0.23232019,89.0611191 C0.23232019,92.9839992 5.02308044,96.5485994 12.0352808,96.5485994 C16.8712808,96.5485994 23.8814006,93.7868793 23.8814006,86.1584795 C23.8808809,79.2866798 18.0678013,77.6408801 12.9541215,76.8499598 L12.9541199,76.8499598 Z M49.8793202,95.9110797 L49.5054401,94.7816396 C49.4472003,94.6058793 49.2584401,94.5138391 49.0821601,94.5705189 C48.4274803,94.7785189 47.7608399,94.9121593 47.1529598,94.9230797 C43.4307997,94.9870394 40.4236396,92.2601593 40.4236396,89.004959 L40.4366396,68.2995994 L45.6033596,68.2995994 C45.7879598,68.2995994 45.9371995,68.1498391 45.9371995,67.965239 L45.9371995,66.9761987 C45.9371995,66.7915986 45.7879598,66.6423588 45.6033596,66.6423588 L40.4309196,66.6423588 L40.4179196,52.0423186 C40.4179196,51.5384385 39.8375994,51.1515583 39.4408391,51.394918 C38.1267989,52.3028383 36.7061585,52.8841979 35.1965986,53.1935978 C34.9199582,53.2689976 34.7681183,53.558638 34.768638,53.8409976 L34.8086782,66.6423572 L30.0418383,66.6423572 C29.8572382,66.6423572 29.7079984,66.791597 29.7079984,66.9761971 L29.7079984,67.9652374 C29.7079984,68.1498375 29.8572382,68.2995978 30.042358,68.2995978 L34.7821577,68.2995978 L34.7691577,86.682638 C34.7691577,92.1441979 40.2541175,96.5719976 47.0193178,96.5719976 C47.9137177,96.5719976 48.7847177,96.4934779 49.6239976,96.3457981 C49.8231577,96.3104385 49.9427579,96.1034787 49.8793178,95.9110789 L49.8793202,95.9110797 Z M63.0253877,63.5423539 C61.7117799,64.4504615 60.2910594,65.0313451 58.7814701,65.3409139 C58.5048591,65.4162463 58.3530176,65.705805 58.3536055,65.9883011 L58.4165782,95.2390255 C58.417167,95.6592388 58.7579282,96 59.1781415,96 L63.2407914,96 C63.6615934,96 64.0023547,95.65865 64.0023547,95.2384368 L64.0023547,64.1897411 C64.0023547,63.6865441 63.4226486,63.2987007 63.0253885,63.5423531 L63.0253877,63.5423539 Z M96.00228,84.7534401 C94.4474803,84.7534401 93.1875205,85.99 93.1833604,87.51672 L93.1828407,87.51672 L93.1833604,87.5229598 L93.1828407,87.5234795 L93.1833604,87.5234795 C93.1833604,87.5614393 93.2067603,89.3897595 93.1916806,89.6185591 C92.9805607,92.6735591 90.1164006,95.0899992 86.6079606,95.0899992 C82.3782808,95.0899992 80.011761,92.0100394 80.011761,87.1677997 L80.011761,72.9801199 C80.011761,67.9626396 82.2222808,65.0579196 86.6079606,65.0579196 C90.1169203,65.0579196 92.9805607,67.4738399 93.1916806,70.5293596 C93.2067603,70.7581593 93.1833604,72.5864795 93.1833604,72.6244393 L93.1828407,72.6244393 L93.1833604,72.624959 L93.1828407,72.6311987 L93.1833604,72.6311987 C93.1875205,74.1579188 94.4474803,75.393959 96.00228,75.393959 C97.5565599,75.393959 98.83472,74.1584393 98.8206798,72.632239 L98.8227595,72.632239 C98.8227595,72.6296388 98.8217192,72.6270386 98.8211995,72.6244385 L98.8211995,72.6239188 C98.8217192,67.328239 93.0569992,63.3913186 86.607959,63.3913186 C79.8427587,63.3913186 74.3583186,67.8456388 74.3583186,74.8297587 L74.3583186,85.3181585 C74.3583186,92.3027989 79.8427587,96.7565986 86.607959,96.7565986 C93.0580386,96.7565986 98.8217184,92.6881183 98.8217184,87.5239984 L98.8217184,87.5234787 C98.8227587,87.5208785 98.8232784,87.5177587 98.8232784,87.515679 L98.8211987,87.515679 C98.8347184,85.9894787 97.5565583,84.7534385 96.0022784,84.7534385 L96.00228,84.7534401 Z M121.309536,72.8164717 C122.131129,72.3662436 123.055128,72.3350512 124.205123,72.3197494 C130.162852,72.2414741 131.41996,68.0681805 131.21574,67.5861712 C131.011519,67.2201035 130.352949,67.0676732 130.165207,67.0147052 C126.480396,65.9747655 122.040496,68.5507793 118.974823,72.6069554 C118.400414,73.312019 117.863083,74.1765753 117.379897,74.948732 C116.622454,76.1593459 115.907385,77.3022787 114.812124,77.8819847 C114.362484,78.1203408 113.820444,78.2309852 113.106552,78.2309852 L112.585111,78.2309852 L112.585111,47.4889163 C112.585111,46.9851313 112.004817,46.5978759 111.607556,46.8415283 C110.294537,47.7496359 108.873817,48.3305195 107.364228,48.6400883 C107.087617,48.7154207 106.935775,49.0049794 106.936363,49.2874755 L106.999336,95.2390271 C106.999924,95.6592404 107.340686,96.0000016 107.760899,96.0000016 L111.823549,96.0000016 C112.244351,96.0000016 112.585112,95.6592404 112.585112,95.2384384 L112.585112,79.8965364 L113.508522,79.8965364 C117.477006,79.8965364 120.392014,82.1158976 121.243623,85.5505811 C122.115831,89.0682483 122.34889,90.6502271 123.701929,93.0437949 C124.336369,94.2332219 126.27912,95.9947037 127.312586,95.9947037 L132.347493,95.9947037 C132.67001,95.9947037 132.931319,95.7333945 132.931319,95.4108772 L132.931319,94.7782031 C132.931319,94.5274874 132.768883,94.3114957 132.53347,94.2255698 C129.265341,93.039085 128.174788,90.2888661 126.992423,84.7966668 C126.016634,80.2602468 122.368312,78.2933668 117.059147,78.2221541 C117.740081,77.5094392 118.271528,76.6625389 118.791203,75.8321171 C119.536876,74.6403359 120.241939,73.4102997 121.30954,72.8164694 L121.309536,72.8164717 Z M191.16228,64.1292003 L190.07964,64.1292003 C189.911159,64.1292003 189.763479,64.2373604 189.717719,64.3949203 L182.731519,88.0856002 L182.729439,88.1110804 L174.571159,64.6601207 C174.47808,64.346041 174.18272,64.1292011 173.84628,64.1292011 L169.53392,64.1292011 C169.03316,64.1292011 168.67124,64.5951215 168.80956,65.0631215 L170.36956,69.5985615 L164.9184,88.0856017 L164.91632,88.111082 L156.7726,64.6596017 C156.68056,64.3450016 156.38416,64.1286814 156.04772,64.1286814 L151.73588,64.1286814 C151.23512,64.1286814 150.87268,64.5946017 151.01152,65.0626017 L161.69544,96.1617216 C161.79216,96.445642 162.05892,96.6214022 162.358961,96.6214022 L163.775441,96.620362 C164.081201,96.6198423 164.350041,96.4186025 164.436361,96.1253226 L171.377841,72.5287626 L179.508562,96.1617224 C179.605282,96.4456428 179.872042,96.621403 180.172082,96.621403 L181.589082,96.6203628 C181.894322,96.6198431 182.163162,96.4186033 182.250002,96.1253234 L191.523681,64.596683 C191.592841,64.3621633 191.412401,64.1292035 191.162282,64.1292035 L191.16228,64.1292003 Z M204.153388,63.5423539 C202.83978,64.4504615 201.419059,65.0313451 199.90947,65.3409139 C199.632859,65.4162463 199.481018,65.705805 199.481606,65.9883011 L199.544578,95.2390255 C199.545167,95.6592388 199.885928,96 200.306141,96 L204.368791,96 C204.789593,96 205.130355,95.65865 205.130355,95.2384368 L205.130355,64.1897411 C205.130355,63.6865441 204.550649,63.2987007 204.153388,63.5423531 L204.153388,63.5423539 Z M207.716373,50.4627758 C207.338534,50.1002389 202.991623,49.7894926 200.798157,55.3293627 C200.079557,57.1438125 198.745351,59.1065737 197.382895,59.5974109 C197.069207,59.7104095 196.871459,60.0193896 196.933844,60.3466145 L196.93914,60.3754527 C202.663809,59.8793183 207.498026,55.8967091 207.876454,51.6474944 C207.893521,51.4538663 207.985921,50.7841147 207.716372,50.4627758 L207.716373,50.4627758 Z M234.47932,95.9110797 L234.10544,94.7816396 C234.0472,94.6058793 233.85844,94.5138391 233.68216,94.5705189 C233.02748,94.7785189 232.36084,94.9121593 231.75296,94.9230797 C228.0308,94.9870394 225.02364,92.2601593 225.02364,89.004959 L225.03664,68.2995994 L230.20336,68.2995994 C230.38796,68.2995994 230.5372,68.1498391 230.5372,67.965239 L230.5372,66.9761987 C230.5372,66.7915986 230.38796,66.6423588 230.20336,66.6423588 L225.03092,66.6423588 L225.01792,52.0423186 C225.01792,51.5384385 224.437599,51.1515583 224.040839,51.394918 C222.726799,52.3028383 221.306159,52.8841979 219.796599,53.1935978 C219.519958,53.2689976 219.368118,53.558638 219.368638,53.8409976 L219.408678,66.6423572 L214.641838,66.6423572 C214.457238,66.6423572 214.307998,66.791597 214.307998,66.9761971 L214.307998,67.9652374 C214.307998,68.1498375 214.457238,68.2995978 214.642358,68.2995978 L219.382158,68.2995978 L219.369158,86.682638 C219.369158,92.1441979 224.854117,96.5719976 231.619318,96.5719976 C232.513718,96.5719976 233.384718,96.4934779 234.223998,96.3457981 C234.423158,96.3104385 234.542758,96.1034787 234.479318,95.9110789 L234.47932,95.9110797 Z M251.647674,63.4676103 C249.227623,63.4676103 246.973538,64.042608 245.073751,65.0313451 L245.064923,47.4883259 C245.064923,46.984541 244.484628,46.5972856 244.087368,46.840938 C242.774349,47.7490456 241.353629,48.3299291 239.843451,48.639498 C239.56684,48.7148304 239.414998,49.004389 239.424414,49.2345059 L239.487387,95.1872342 C239.479148,95.6598267 239.819909,95.9999992 240.240122,95.9999992 L244.303361,95.9999992 C244.724163,95.9999992 245.064924,95.659238 245.064924,95.238436 L245.073752,70.5253082 C245.329175,67.5084838 248.169441,65.1337495 251.647676,65.1337495 C256.033431,65.1337495 258.243964,68.0387527 258.243964,73.0560045 L258.235136,95.237848 C258.235136,95.65865 258.576486,95.9994113 258.9967,95.9994113 L263.126443,95.9994113 C263.547245,95.9994113 263.888006,95.65865 263.888006,95.237848 L263.896834,74.9057663 C263.897423,67.9216345 258.412875,63.4676095 251.647678,63.4676095 L251.647674,63.4676103 Z M309.057454,64.1108032 L304.911821,64.1108032 C304.495139,64.1108032 304.157909,64.4062477 304.157909,64.7699621 L304.157909,89.0334504 C304.157909,92.2892205 301.150501,95.0158975 297.428612,94.951748 L296.423396,94.9529255 C292.765069,94.9476292 289.832992,92.2486121 289.832992,89.0334512 L289.832992,64.7699629 C289.832992,64.4062485 289.494585,64.110804 289.078493,64.110804 L284.932271,64.110804 C284.516177,64.110804 284.178359,64.4062485 284.178359,64.7699629 L284.178359,86.7116849 C284.178359,92.1732797 289.663495,96.6008199 296.428692,96.6008199 L297.561619,96.6008199 C304.327405,96.6008199 309.811953,92.1732797 309.811953,86.7116849 L309.811953,64.7699629 C309.811953,64.4062485 309.473546,64.110804 309.057453,64.110804 L309.057454,64.1108032 Z M329.58212,76.8499598 L329.582121,76.8499598 C334.695801,77.6408801 340.508881,79.2866798 340.509401,86.1584795 C340.509401,93.7868793 333.499281,96.5485994 328.663281,96.5485994 C321.65108,96.5485994 316.86032,92.9839992 316.86032,89.0611191 C316.86032,87.452239 318.10208,86.1496388 319.69744,86.1496388 C321.25224,86.1496388 322.50388,87.4465189 322.50388,88.8000789 C322.50388,91.5695986 325.458,94.7462784 328.7444,94.7462784 C332.18524,94.7462784 336.237599,92.4972784 336.237599,88.6295181 C336.237599,85.1985583 333.02192,83.2251585 328.65184,82.3541585 C323.56208,81.3401585 316.965879,80.1935583 316.965879,72.9665986 C316.965879,65.7406782 323.479399,63.184358 327.973759,63.184358 C334.490399,63.184358 338.844359,66.3989984 338.843839,70.7056388 C338.843839,72.2495189 337.581279,73.5011593 336.02492,73.5011593 C334.46752,73.5011593 333.205479,72.2495189 333.205479,70.7056388 C333.205479,67.6651987 330.9518,64.8915189 327.89784,64.8915189 C324.70088,64.8915189 320.934521,66.9621593 320.934521,70.6260797 C320.934521,74.2905197 325.12832,76.1614795 329.58212,76.8499598 Z M68.9980573,53.7943126 C68.8593443,53.7126526 68.7866125,53.6699717 68.6901449,53.6131364 C69.0840725,53.3725117 69.0925651,52.9300236 69.3449488,52.6245065 C69.0557637,52.2456043 68.6254702,52.4080532 68.2589803,52.3531777 C68.2315425,52.2865432 68.2086778,52.2279658 68.1823288,52.1704772 C68.175796,52.156105 68.1590285,52.1458703 68.1379058,52.1249653 C68.2276229,51.9509752 68.3188643,51.7735009 68.4175095,51.5814367 C68.2145573,51.5374492 68.0015881,51.4655884 67.7844815,51.4490387 C67.3559301,51.4163747 66.9600426,51.5668468 66.5674215,51.7184076 C66.1967942,51.8614759 65.9039072,52.1073268 65.5999144,52.3599283 C65.1347793,52.746452 64.7517396,53.2388071 64.1814265,53.4983769 C64.0797326,53.544542 64.0089607,53.660608 63.9257764,53.7464054 C63.3478417,54.3430675 62.6823675,54.8356404 62.0205952,55.3306086 C61.839419,55.4658375 61.681543,55.6280686 61.4873012,55.7480543 C61.2813004,55.8750083 61.0363205,55.9882434 60.9061001,56.1755169 C60.7615075,56.3836954 60.5393925,56.4764611 60.3832586,56.6595971 C60.2149302,56.8579764 60.0067518,57.0550491 59.7741842,57.1552186 C59.6200102,57.2216354 59.6128242,57.4001985 59.4346966,57.4330802 C59.3062182,57.4570338 59.1714249,57.5807214 59.0908537,57.6959164 C58.9991768,57.8272256 58.8641657,57.8908115 58.7546325,57.9911988 C58.5225004,58.2039502 58.2727298,58.3977565 58.0405978,58.6107257 C57.8080302,58.8243481 57.5972387,59.0571334 57.3243855,59.2295993 C57.0585007,59.3974921 56.9291514,59.735891 56.6038181,59.8412868 C56.4947204,60.1624826 56.18855,60.2844281 55.9607732,60.4886869 C55.4466421,60.9488135 54.9553758,61.4344181 54.4414625,61.8949802 C53.9292912,62.3538003 53.4550102,62.85835 52.9254182,63.2910388 C52.2804134,63.8184533 51.7390623,64.4442952 51.1312945,65.0045914 C50.6990411,65.4030919 50.2881282,65.829248 49.8245174,66.186592 C49.6128548,66.3499119 49.4765371,66.5574371 49.2994984,66.7383955 C49.1130959,66.9287177 48.9467273,67.1382027 48.7657689,67.3341866 C48.7287497,67.3744722 48.6553646,67.381005 48.6181277,67.4210728 C48.4256279,67.6288157 48.2418386,67.8448335 48.0499921,68.0534475 C47.9267401,68.1875876 47.799786,68.3191145 47.665646,68.4421489 C47.4942689,68.5985005 47.2582172,68.714131 47.1528214,68.9046709 C47.0400218,69.1080586 46.824004,69.1755641 46.7140353,69.3676284 C46.6023244,69.5623057 46.4006788,69.6981879 46.2151474,69.8020593 C45.8508351,70.0069714 45.6411323,70.3793408 45.2872725,70.5873015 C45.2530842,70.6075531 45.2450271,70.682027 45.2123631,70.692915 C44.7936109,70.8296682 44.5329523,71.1833103 44.1982553,71.4339519 C44.0728257,71.5282419 43.9885526,71.6771897 43.8683491,71.822 L43.583737,71.822 C43.5715424,71.7819322 43.5580413,71.7370736 43.5451935,71.6926506 C43.4927133,71.5132165 43.6111747,71.3738502 43.6819467,71.2381858 C43.7498877,71.1084009 43.9095057,71.0291363 43.9931255,70.9039243 C44.0630265,70.7996174 44.1584053,70.7340716 44.2361456,70.6511051 C44.5039902,70.3662752 44.7356867,70.0463859 44.968472,69.7304163 C45.2178071,69.392453 45.4597383,69.0486101 45.6920881,68.6988878 C45.8416892,68.4739418 45.9581907,68.2270021 46.1073562,68.0016206 C46.4098247,67.5449781 46.7399487,67.1055387 47.0269562,66.6397503 C47.1543458,66.4326607 47.3252873,66.2623724 47.4494104,66.0502743 C47.5615567,65.8590811 47.7821475,65.730385 47.9570087,65.5766466 C48.0055691,65.5341834 48.0809141,65.5113186 48.1107472,65.4599273 C48.3141349,65.1097694 48.6836734,64.930553 48.9434609,64.6381015 C49.1222418,64.4366736 49.3837714,64.3232207 49.5187826,64.0651752 C49.6374617,63.8380517 49.9388414,63.7718527 50.0501167,63.5253485 C50.3930885,63.4129844 50.5355034,63.0438814 50.8654097,62.8984178 C51.0139219,62.8330898 51.1818148,62.683271 51.1160513,62.4330649 C50.8961138,62.3392104 50.6641995,62.2405652 50.4246637,62.1384358 C50.4575454,61.6192962 50.7896292,61.2552017 51.1439246,60.8841389 C51.567032,60.441433 51.9487651,59.9588771 52.3402974,59.4869914 C52.3749212,59.4456171 52.3511853,59.3559 52.3544517,59.2903543 C52.1512818,59.1579563 51.9507249,59.0273003 51.7196817,58.8768283 C51.759314,58.6771424 51.7804367,58.468093 51.8451114,58.2736334 C51.914359,58.0652372 52.0454505,57.8770926 52.1107784,57.6678254 C52.1730578,57.4690106 52.2843331,57.2871811 52.3361599,57.0970767 C52.3919064,56.8943423 52.3790586,56.6768002 52.5541376,56.5163111 L52.5541376,56.1104067 C52.2926079,56.0163344 52.1547659,55.7713546 51.9367883,55.594098 C51.9971078,55.2341409 51.8864858,54.8868139 51.8048258,54.5364383 C51.7948088,54.4941929 51.7360137,54.4630532 51.6815737,54.4090487 L51.0010741,54.4090487 C50.9564333,54.2352764 50.9133168,54.0676013 50.8649741,53.88011 C50.7737328,53.9232264 50.6914195,53.9905143 50.6032268,53.9996602 C50.1089118,54.0503982 49.6130726,54.0869819 49.1396626,54.1268319 C48.9621883,53.8990551 48.960664,53.6699717 48.976996,53.4154104 C48.4225793,53.2947714 47.9232559,53.6403564 47.3440146,53.587223 C47.3011159,53.4944572 47.2482003,53.3801333 47.2081324,53.2934649 C47.3170124,53.0950856 47.5339012,53.032153 47.5443537,52.7984967 C46.901091,52.7126993 46.3018158,52.8407421 45.7018873,53.0173453 C45.3604398,53.1179504 45.0091931,53.2237817 44.6444453,53.180883 C44.5218465,53.1662931 44.404474,53.1048848 44.2638011,53.0578487 C44.3025623,52.9065056 44.340017,52.7599532 44.3972879,52.536967 C44.2359278,52.5990286 44.1435976,52.6491134 44.0451701,52.6702361 C43.6993675,52.7449277 43.3420235,52.7797693 43.0071088,52.8869072 C42.7290294,52.9755354 42.4553052,52.9663895 42.1763548,52.9840281 C42.0350287,52.9927385 41.8960979,53.0426055 41.7275517,53.0804957 C41.7138328,52.9594212 41.6992429,52.832685 41.6848708,52.7061665 C41.6543844,52.6950607 41.6247691,52.673938 41.5953715,52.6741558 C41.1206549,52.6813418 40.6709808,52.8483637 40.2017082,52.8925689 C40.08586,53.0471784 39.9184026,52.9507108 39.7772942,52.9809794 C39.6368391,53.0108125 39.4976905,53.0467429 39.3587597,53.0826733 C39.0822047,53.1538808 38.7997701,53.2006992 38.5364984,53.3228625 C38.4374176,53.3690275 38.3126412,53.3982074 38.2068099,53.3838352 C37.9330858,53.345945 37.6691608,53.4154104 37.4407307,53.5190641 C37.0130503,53.7126526 36.5450843,53.7372595 36.1128309,53.8988373 C35.9351388,53.9654719 35.7450345,53.9985714 35.5616806,54.0517048 C35.3306374,54.1187748 35.1104822,54.2032657 34.8598405,54.2224285 C34.6152962,54.2407204 34.3835997,54.3890148 34.138402,54.4456324 C33.2242461,54.6566417 32.8843229,54.9338501 32,54.7990567 C32.0339705,54.6849505 32.0685944,54.5691023 32.0979919,54.469586 C32.302904,54.3820465 32.4982346,54.2659805 32.7094617,54.2145892 C33.2192376,54.090466 33.7109394,53.9103786 34.2109161,53.7564224 C34.6357656,53.6257664 35.0638815,53.5086116 35.4902554,53.3842707 C35.7622375,53.3050061 36.0263802,53.1954729 36.2972735,53.1088045 C36.6282685,53.0025377 36.9488111,52.8448795 37.2874277,52.7863021 C37.6698141,52.7201031 38.0156168,52.5570009 38.3847198,52.4592268 C39.0734943,52.2763085 39.7568248,52.0659524 40.4325337,51.8416597 C40.9105166,51.6829128 41.4320516,51.6367477 41.8627806,51.3414653 C42.1310608,51.3573618 42.3584021,51.181194 42.5990268,51.1533207 C43.039555,51.1025827 43.4162796,50.883734 43.8361207,50.7881374 C44.3929327,50.6620544 44.9242668,50.4440768 45.479119,50.3007908 C45.7957418,50.2186953 46.1086628,50.0934834 46.4307297,50.0079038 C46.8797505,49.8885713 47.302858,49.6660207 47.7893336,49.6971604 C47.8921162,49.7034754 47.9983831,49.6313969 48.1050854,49.6013461 C48.5519287,49.4748276 49.0362267,49.5118467 49.4623827,49.2934336 C50.0011207,49.3820619 50.481499,49.043663 51.016535,49.0822065 C51.1358674,49.0909169 51.2606439,49.0199272 51.3832427,48.9861744 C51.8307392,48.8624868 52.3139484,48.8955863 52.7407578,48.6786974 C53.2794957,48.7686323 53.759874,48.4274025 54.2946923,48.4681236 C54.3968217,48.475963 54.5033063,48.3999648 54.6106619,48.3727448 C55.076668,48.2549367 55.5746849,48.2823745 56.0189151,48.0643968 C56.5578708,48.1552027 57.0380313,47.8117953 57.5730673,47.8536052 C57.6751967,47.8614446 57.7816813,47.7841398 57.8890369,47.7586619 C58.2158945,47.6809217 58.5490671,47.6256106 58.8704807,47.5306673 C59.1894989,47.4365951 59.4858701,47.2883006 59.8244868,47.2303765 C60.1110588,47.1815982 60.3876138,47.0252466 60.6474014,46.8791298 C61.1325704,46.6062766 61.6882936,46.5108978 62.1717205,46.2280277 C62.6342425,45.9571344 63.1355258,45.7530934 63.6102423,45.5015807 C64.170974,45.204774 64.7693782,44.9708999 65.2750166,44.5791499 C65.5898974,44.3352588 65.890406,44.068503 66.0659205,43.7013598 C65.9988505,43.2756392 65.7651941,42.8915108 65.7623632,42.4455386 C65.7614922,42.3229397 65.7057457,42.1983811 65.663718,42.0788309 C65.4230933,41.393105 65.3222705,40.6590365 64.9479413,40.020129 C65.0015102,39.717225 64.7081876,39.6440577 64.6017031,39.4689787 C64.1677076,39.4432831 63.9327447,39.1580176 63.7243485,38.8622997 C63.5544958,38.621675 63.4151295,38.3610164 63.1893125,38.1635082 C62.9918043,37.9908246 62.766205,37.8778073 62.5105549,37.8238028 C61.9868424,37.7133985 61.5643882,37.4915012 61.3457573,36.9497146 C61.2392727,36.6860074 61.0835744,36.4331882 60.8551443,36.2269696 C60.6195281,36.0142182 60.3651845,35.8637461 60.0662002,35.7746823 C59.8943877,35.7237265 59.729979,35.6533901 59.6136952,35.509233 C59.4643119,35.3241371 59.2090973,35.2459613 59.1124119,35.0090386 C58.8452206,35.0072965 58.844785,34.6898026 58.6220167,34.6061828 C58.4020792,34.523434 58.2030467,34.3673002 58.017733,34.215086 C57.7485818,33.993842 57.5310397,33.7124962 57.3770834,33.4069791 C57.0304097,32.7190756 56.5180207,32.2563359 55.765007,32.0714577 C55.4248661,31.7994757 54.966046,31.7576658 54.6256873,31.4795864 C54.5333571,31.4042415 54.3911599,31.3894338 54.2426477,31.3367359 C54.040131,31.1749403 53.8123542,30.9839649 53.5749959,30.8060551 C53.3557117,30.6414286 53.1050701,30.513168 52.905602,30.3285076 C52.5778734,30.0256037 52.2614683,29.7161669 51.8679762,29.4925275 C51.7917602,29.449411 51.7773881,29.2976324 51.7349249,29.1972451 C51.9211096,29.0252148 51.9211096,29.0252148 52.2815022,28.964242 C52.2179163,28.8749604 52.1804616,28.7708712 52.1068588,28.7277548 C51.5308839,28.3887026 50.9782093,28.0098004 50.3802407,27.7071142 C50.1955803,27.6136952 49.997201,27.5200584 49.8550038,27.3769902 C49.6603265,27.180353 49.368746,27.2225984 49.1723266,27.0283566 C49.004216,26.8624236 48.7777457,26.7555035 48.5756645,26.6241943 C48.5360322,26.5982809 48.4920447,26.5789002 48.4489283,26.5593018 C48.1928426,26.4430181 47.9591863,26.3032162 47.8770908,25.9691726 C47.9347972,25.9282337 48.0266918,25.8631235 48.1188043,25.7984488 C48.5229666,25.6839071 48.9049174,26.0946023 49.3948772,25.9003604 C49.3619954,25.8348147 49.3441391,25.7544613 49.2947076,25.7082962 C48.9772137,25.4121428 48.7039251,25.0730906 48.3306846,24.8294173 C47.9822688,24.6016405 47.7926,24.1794041 47.3930106,23.9988811 C47.3026402,23.7310365 47.050692,23.6297781 46.857539,23.4631918 C46.4255034,23.0906047 46.015026,22.6934106 45.5921364,22.3099355 C45.436438,22.1688271 45.2709405,22.0383889 45.0906353,21.8872636 L45.0906353,21.6396706 L46.1284789,21.6396706 C45.4288164,20.9670103 44.7859893,20.3048025 44.0913352,19.7024787 C43.8012791,19.450966 43.5227642,19.1881298 43.2368455,18.9326975 C43.1290543,18.8362298 42.9454827,18.7854918 42.8969223,18.6713856 C42.8350785,18.525051 42.7007206,18.4899916 42.59968,18.3589002 C42.6602173,18.2907413 42.7227144,18.2204049 42.7913087,18.1431001 C43.1471284,18.265699 43.5001172,18.3634731 43.8317655,18.5098078 C44.068906,18.6143325 44.2335324,18.6040978 44.3968524,18.3510608 C44.3123615,18.2654812 44.2324436,18.184039 44.1520902,18.1032501 C43.9833263,17.9340507 43.7801564,17.786845 43.6551622,17.5902078 C43.5367008,17.4038053 43.3672836,17.2768513 43.2342323,17.1111361 C43.0863734,16.9273467 42.918045,16.757494 42.7442726,16.5972227 C42.5254239,16.3951416 42.3133258,16.172591 42.0598533,16.0242965 C41.6635303,15.7921644 41.3185987,15.5003662 40.9558107,15.2262065 C40.6921035,15.0269562 40.4301383,14.8414248 40.2805373,14.4324717 L40.2805373,14.1944602 C40.8898294,14.3309956 41.4671109,14.5409162 42.0598533,14.7264476 C42.2042281,14.3845646 41.9762335,14.173773 41.854288,13.9851929 C41.6391412,13.6528914 41.3390681,13.3750297 41.0705701,13.078223 C40.9919588,12.9913368 40.902895,12.91229 40.8118714,12.8380339 C40.7384863,12.7781499 40.5810459,12.7182659 40.5875787,12.6792869 C40.6206782,12.4809077 40.3665524,12.5725846 40.3772227,12.4643579 C40.3944257,12.2916743 40.2448247,12.3524293 40.1853762,12.2929809 C40.1250567,12.2328792 40.036864,12.1830122 40.0089907,12.1102804 C39.865487,11.7363866 39.4436861,11.5730667 39.3284911,11.1608473 C39.283197,10.9981806 39.2322412,10.8631695 39.276882,10.6896149 C39.6945455,10.8032855 40.1065471,10.9152141 40.6363569,11.0593712 C40.4793521,10.829199 40.3944257,10.6907037 40.2959982,10.5624431 C40.0166123,10.1990019 39.7287338,9.84231117 39.4495656,9.47886993 C39.1838985,9.13284948 38.9452337,8.76331096 38.6536532,8.44146185 C38.5169,8.29055425 38.4054069,8.14117097 38.3045841,7.96652755 C38.2063744,7.79667484 38.0400059,7.66754323 37.9141407,7.51206267 C37.7399327,7.29648039 37.5766128,7.07175219 37.4067601,6.85246799 C37.1667887,6.54194239 36.9211556,6.235772 36.6883703,5.91980241 C36.6557063,5.87559715 36.6837973,5.78675112 36.6837973,5.71881004 C36.8850074,5.55701444 37.0539891,5.73535979 37.2356009,5.77172569 C37.4200435,5.80896263 37.590985,5.95028879 37.7967681,5.83683589 C37.8590474,5.65914383 37.6756936,5.62277793 37.6092768,5.51934198 C37.5395937,5.41111532 37.4845004,5.28263699 37.3893393,5.20337239 C36.9233332,4.81423548 36.5892895,4.31273447 36.2437046,3.82908978 C35.9741179,3.45149414 35.7927239,3.01140142 35.8737306,2.53559607 C35.9294771,2.47984954 35.9656252,2.44391916 36.0200652,2.38926143 C36.13722,2.48180938 36.2931361,2.55432342 36.3682632,2.67670448 C36.4841115,2.8655023 36.6243489,2.9968115 36.8103158,3.11657944 C37.0056464,3.24244465 37.1526343,3.44169494 37.3305442,3.59761102 C37.4677329,3.71803224 37.6199471,3.82103266 37.8246413,3.87895679 C37.4243987,2.99136751 37.0239383,2.10377823 36.5971289,1.15739378 C36.704049,0.92678606 36.3800223,0.669176119 36.5089361,0.367796442 C36.5276635,0.324026705 36.5788371,0.294411361 36.6289218,0.244544348 C36.918978,0.819648198 37.3331573,1.3043817 37.7000827,1.82199694 C37.839449,2.01841635 37.9696694,2.22136856 38.098801,2.42475629 C38.3302798,2.78906858 38.5574033,3.15621174 38.7875755,3.52161282 C38.906908,3.71128168 39.0153524,3.90987869 39.1521056,4.08648196 C39.4332336,4.44948768 39.7302581,4.80029885 40.0207498,5.15633626 C40.224573,5.16918409 40.185594,5.41155084 40.3356305,5.48602472 C40.4645444,5.55026389 40.5908451,5.63584352 40.6899259,5.73884395 C40.8369138,5.89192914 40.9447049,6.0837756 41.0956125,6.23228784 C41.2761355,6.40976214 41.5139293,6.52648144 41.6313018,6.77189683 C41.7083888,6.93369242 41.8873875,6.99771383 42.0141237,7.11290881 C42.3899773,7.45479182 42.6780736,7.87833479 43.0630731,8.21020085 C43.2048348,8.33258191 43.3239494,8.48087639 43.4648401,8.60478176 C43.5713246,8.69820075 43.7015451,8.76483527 43.8102072,8.85672995 C43.8700912,8.907468 43.9007953,8.99130555 43.9556708,9.05010072 C44.1492594,9.25653709 44.345461,9.46079586 44.5460179,9.66004615 C44.5891343,9.70316261 44.6899572,9.71056644 44.7058536,9.75498946 C44.8393404,10.129972 45.1927647,10.2891545 45.4734572,10.4960263 C45.8582389,10.7791142 46.1916293,11.1179486 46.5694427,11.4051739 C47.3167946,11.9730916 47.9574442,12.671012 48.7509612,13.1823123 C48.8352343,13.2365345 48.8938117,13.3286469 48.9704632,13.3963702 C49.1686247,13.5707959 49.3230164,13.7881202 49.5751824,13.9118079 C49.7942488,14.0193812 49.8746022,14.3229385 50.1522461,14.3745476 C50.3939595,14.75149 50.7863628,14.9653302 51.1245439,15.2279486 C51.6706857,15.6523626 52.1184,16.1934959 52.7250791,16.5453959 C52.8820839,16.6364195 52.9482829,16.8287015 53.1129094,16.9423721 C53.4123293,17.149244 53.6503408,17.4456152 53.9510672,17.649874 C54.4266548,17.9728119 54.7741996,18.4560211 55.3033561,18.706445 C55.587315,19.1138737 56.0607249,19.2817666 56.4269971,19.5870659 C56.7701866,19.8729846 57.2065775,20.0493702 57.5395323,20.344217 C58.1901988,20.9199742 58.9834981,21.2977876 59.6158728,21.8924898 C60.1374077,22.0871671 60.4890899,22.5385834 60.9842759,22.7877007 C61.261702,22.9272848 61.5184409,23.1517952 61.7751798,23.3479969 C62.1366612,23.6241164 62.5295,23.8577727 62.8774803,24.1456513 C63.1806021,24.3960752 63.5248804,24.5807355 63.8273489,24.8228845 C64.2465367,25.1586703 64.7219065,25.4095297 65.1356503,25.7572922 C65.5787917,26.1296616 66.0820347,26.4306058 66.5578401,26.7642139 C66.9944487,27.0701665 67.4323638,27.3748126 67.8654882,27.6859915 C68.2872891,27.9891132 68.6995085,28.3057361 69.123487,28.6058092 C69.7691451,29.0628872 70.4520401,29.4670496 71.0687361,29.9657197 C71.2346691,30.0998598 71.4138855,30.2194099 71.5658819,30.3677044 C71.7100389,30.5083773 71.8703102,30.6322827 72.0120719,30.7781818 C72.1655926,30.9362755 72.3999022,31.0368805 72.5198879,31.2339532 C72.6427045,31.4347279 72.8757076,31.4985315 73.0020083,31.6890714 C73.1015246,31.8395435 73.2278253,31.9728125 73.3458512,32.1104368 C73.4532068,32.2358665 73.6467953,32.2604733 73.6947025,32.4719182 C73.7156074,32.5638128 73.9030987,32.6095424 73.9978242,32.6949043 C74.1624507,32.8434165 74.3137938,33.0063009 74.4707987,33.163088 C74.4072128,33.4326748 74.8172547,33.3433932 74.7904702,33.5853245 C75.0108432,33.7614922 75.1589199,34.0119161 75.4265468,34.148016 C75.5558962,34.2135617 75.6273214,34.3927781 75.7351126,34.533451 L76.1009492,34.533451 C76.5329848,34.341169 76.9075318,34.1741472 77.3132185,33.9934065 C77.3791997,33.8740741 77.4255826,33.7122785 77.4558512,33.5311022 C77.4826356,33.3714842 77.6309301,33.2316824 77.72718,33.084259 C77.7792246,33.0043411 77.8349711,32.9270363 77.8783053,32.863886 C78.0867016,32.7286571 78.2870406,32.5984367 78.4529737,32.4904278 C78.4170433,32.2800717 78.3854681,32.1230668 78.3643454,31.9649732 C78.3342945,31.7393739 78.3941785,31.5163878 78.2746283,31.2836025 C78.1746765,31.0891429 78.3406096,30.8835776 78.471701,30.672786 C78.5731771,30.6647289 78.6859768,30.6562363 78.8153261,30.6464371 C79.0903569,30.4894322 79.1450146,30.1954564 79.1778963,29.9062712 C79.2129557,29.5961812 79.1249807,29.2730255 79.2845987,28.9762188 C79.4206986,28.722964 79.3507977,28.3969775 79.5670332,28.171596 C79.6127628,27.6075979 79.9494196,27.1232999 80.0069082,26.5601729 C80.0210626,26.4234197 80.1007627,26.293417 80.1438792,26.1771332 C80.5515257,26.3284764 80.9635274,26.4813438 81.3851105,26.6379132 C81.6690694,26.2614063 81.7409301,25.7949647 81.8504634,25.3381044 C81.913396,25.0761393 81.9802483,24.8017618 82.0773692,24.5624437 C82.233503,24.1774442 82.2862009,23.7671846 82.4440768,23.383274 C82.541851,23.1452624 82.6592236,22.9255427 82.7572155,22.7173642 C83.1226166,22.5161541 83.3371101,22.9359952 83.642845,22.8687074 C83.7772028,23.2031865 84.0075928,23.3760879 84.3682031,23.3893712 C84.4487743,23.2007912 84.5456774,23.0172196 84.6053436,22.8223245 C84.6615257,22.6383174 84.6449759,22.4279613 84.7194498,22.2546245 C84.871664,21.9003292 84.8945288,21.5042239 85.060244,21.1682204 C85.1425573,21.0014164 85.0460896,20.8130541 85.2104984,20.6573557 C85.2971668,20.5752603 85.3010865,20.3553228 85.3435496,20.2068105 C85.4164992,19.9529025 85.5937557,19.7288276 85.720492,19.5036639 L86.1817074,19.5036639 C86.3639725,19.6341021 86.5603919,19.7749927 86.7940482,19.94245 C86.8578519,19.8350944 86.9299304,19.7503858 86.9625944,19.6526116 C87.2315278,18.8421094 87.5191886,18.03618 87.7476187,17.2141365 C87.8926468,16.6919483 88.0801381,16.1915361 88.2989868,15.7004875 C88.5060764,15.2353524 88.7693481,14.8054944 89.1804788,14.4760237 L89.7203055,14.4760237 C89.8725197,14.8237862 90.078085,15.1600075 90.4236699,15.3923573 L90.5913451,15.3923573 C91.2032503,13.7051537 91.8116714,12.0279671 92.4521032,10.2625877 C92.5331099,10.2027038 92.6896793,10.087291 92.8826145,9.94487608 C93.2284172,9.97601574 93.6055773,10.0099863 94.0130061,10.0467877 C94.1142644,9.75019874 94.1963599,9.40700917 94.3470497,9.09713686 C94.5040546,8.77419895 94.5110229,8.41685498 94.6475584,8.09457036 C94.666068,8.05058286 94.7070068,8.01595904 94.7531719,7.95672835 C94.6651969,7.63444372 94.8463732,7.34808948 94.9522045,7.0434434 C95.1390424,6.50666529 95.2901678,5.95595055 95.5682472,5.45553834 C95.6764738,5.26107876 95.7938464,5.07162767 95.9177518,4.86214266 L96.4079293,4.86214266 C96.5431582,4.95512613 96.7232456,5.02960001 96.8268993,5.16330458 C96.9364325,5.30397746 97.0492321,5.40676013 97.2530554,5.48123401 C97.3035757,5.39543661 97.3523539,5.30092882 97.4115846,5.21426039 C97.7451927,4.72734929 97.950758,4.17315039 98.2196915,3.65313979 C98.3771319,3.34827595 98.4583563,2.99855358 98.6434522,2.70414222 C98.8638252,2.35333105 99.0047159,1.95962118 99.2486069,1.62165785 C99.3104508,1.53607821 99.3145882,1.41108404 99.3583579,1.30982569 C99.4269523,1.15042546 99.5070879,0.995815943 99.5754645,0.852094421 C100.11834,0.862546895 100.380523,1.19615504 100.582604,1.59051818 C100.762474,1.94241815 100.949312,2.29322932 101.003752,2.69804495 C101.015293,2.78427786 101.135496,2.85548534 101.22064,2.94999313 C101.598454,1.94524903 101.958846,0.987976587 102.33078,0 C102.648492,0.293758082 102.884326,0.552239062 102.994948,0.942029252 C103.096424,1.30067978 103.32333,1.62274665 103.485997,1.9655007 C103.641477,2.29366484 103.785416,2.62727298 103.960931,3.01771645 C103.923912,3.29797342 104.018637,3.62744412 104.142543,3.94646235 C104.21375,4.12938065 104.081788,4.35541541 104.27211,4.50719405 C104.306298,4.85147242 104.375763,5.19662184 104.367053,5.53981141 C104.348543,6.28063053 104.510121,7.00729526 104.489652,7.7507275 C104.471142,8.43841321 104.370973,9.11825956 104.350721,9.80638079 C104.335042,10.323125 104.143631,10.8416113 104.054785,11.364235 C103.83071,11.5523795 104.036276,11.8317655 103.893861,12.0693415 C103.783021,12.2537841 103.707894,12.5192334 103.755148,12.779021 C103.784328,12.9388567 103.602716,13.071908 103.657809,13.247858 C103.46139,13.4569075 103.575278,13.7432617 103.473802,13.9906369 C103.382343,14.2144941 103.301554,14.4827743 103.340315,14.7604181 C103.357954,14.8880254 103.26693,15.0315292 103.2212,15.1663225 C103.200949,15.2259888 103.143025,15.2858727 103.150429,15.3390061 C103.18331,15.5772354 103.112321,15.7986972 103.0385,16.0125374 C102.90828,16.3920929 102.992553,16.8230397 102.75171,17.1734154 C102.808763,17.5939097 102.540701,17.9558266 102.535475,18.3621666 C102.532426,18.6171634 102.341233,18.7909358 102.297899,19.0380933 C102.258266,19.2643458 102.203609,19.5060592 102.116722,19.7264322 C102.028312,19.9502894 101.91573,20.1612987 101.91181,20.4115048 C101.910939,20.4659448 101.843869,20.5175539 101.815125,20.5741715 C101.514181,21.1653895 101.247425,21.775335 101.02727,22.397475 C100.855893,22.8815552 100.602856,23.3157684 100.378127,23.7676201 C100.068255,24.3910667 99.7546809,25.0134244 99.4169353,25.6218455 C99.1229595,26.1516553 98.803288,26.6675285 98.4773014,27.1783932 C98.0626866,27.8281887 97.6350062,28.4697093 97.2036239,29.108399 C97.0394329,29.3512013 96.8473687,29.575494 96.6696767,29.8093681 C96.4040096,30.1597437 96.1248414,30.5018445 95.8833457,30.8683344 C95.807783,30.9833116 95.5847969,30.9571804 95.6257358,31.1603504 C95.299967,31.5203075 94.9783356,31.8841843 94.6475584,32.2393506 C94.083778,32.8438521 93.5180379,33.4468292 92.9440228,34.0417492 C92.7852759,34.2063756 92.6548377,34.4130298 92.4109466,34.4818419 C92.3680479,34.4942542 92.3318998,34.5467343 92.3022845,34.587891 C91.9057437,35.1412188 91.3565533,35.5172901 90.7995235,35.8842155 C90.6834575,36.1509714 90.4108221,36.2624645 90.215056,36.445165 C90.0423724,36.6063073 89.824177,36.7221556 89.6423475,36.8928793 C89.4494122,37.0740555 89.1691553,37.1596352 88.9627189,37.3303589 C88.8782281,37.4000421 88.8518791,37.5474655 88.6487091,37.575121 C88.7486609,37.674855 88.8107225,37.7898323 88.900004,37.8174878 C89.6804555,38.0592012 90.2773353,38.5670173 90.7927729,39.1641149 C90.9654565,39.3642362 91.0745542,39.6303388 91.2609567,39.837864 C91.32868,39.9129911 91.3417456,40.0421227 91.367659,40.1494784 C91.5246639,40.7990561 91.5283658,41.4327373 91.2846925,42.0766533 C91.1982418,42.3050834 91.256166,42.5936153 91.1662311,42.8473055 C91.0048711,43.303077 90.9698117,43.7908591 90.8814012,44.2599139 C90.781885,44.7879816 90.7844981,45.3672229 91.0007336,45.8854914 C91.0823936,46.080822 91.0131459,46.2365204 91.1002499,46.4869442 C90.7844981,46.3227533 90.5565035,46.2049452 90.3905704,46.0063482 C90.1394933,45.7047507 89.8807946,45.4046776 89.6704385,45.0752069 C89.434169,44.7058861 89.0574444,44.580892 88.688777,44.4942235 C88.2739444,44.3962316 87.8412555,44.3352588 87.4029049,44.373149 C87.1150263,44.3979737 86.821486,44.3979737 86.5333896,44.3733668 C86.0138146,44.3295971 85.5225483,44.4848599 85.0347661,44.6000548 C84.7233695,44.6734399 84.4328778,44.8905465 84.1676463,45.0891435 C83.931159,45.2666178 83.7356107,45.5017985 83.5561765,45.7406811 C83.1361177,46.0009042 82.6720714,46.2021143 82.2178243,46.4235761 C81.7500761,46.6515707 81.2781904,46.8684595 80.7877951,47.0509423 C80.3755757,47.204463 80.0116989,47.4858088 79.6014393,47.6465156 C78.9751619,47.8914955 78.44361,48.3037149 77.8371487,48.5789634 C77.7648524,48.6120629 77.7030086,48.6749955 77.6453023,48.7327019 C77.1917084,49.1904332 76.680626,49.5749971 76.1460255,49.9321233 C76.0606636,49.9889587 76.0349679,50.1289783 75.9576632,50.206283 C75.8803584,50.2838055 75.7560175,50.315163 75.6808904,50.393992 C75.3718891,50.7193253 75.0075768,50.971709 74.6417402,51.2253993 C74.2458527,51.5006478 73.8835003,51.8325138 73.4325196,52.0152144 C73.0351078,52.1763567 72.6616496,52.4278693 72.1941191,52.3727761 C72.0773998,52.3590572 71.943042,52.4182879 71.8295891,52.4714213 C71.6444932,52.5583075 71.457873,52.5988108 71.3276526,52.5702843 C70.511924,53.032153 69.656781,53.2849722 68.9980573,53.7943126 Z"/></svg>
